<?xml version="1.0" encoding="utf-8"?>
<!-- Generator: Adobe Illustrator 27.5.0, SVG Export Plug-In . SVG Version: 6.00 Build 0)  -->
<svg version="1.1" id="Layer_1" xmlns="http://www.w3.org/2000/svg" xmlns:xlink="http://www.w3.org/1999/xlink" x="0px" y="0px"
	 viewBox="0 0 72 72" style="enable-background:new 0 0 72 72;" xml:space="preserve">
<style type="text/css">
	.st0{fill:#F0F0F0;}
	.st1{enable-background:new    ;}
	.st2{fill:#8FE5D0;}
</style>
<rect class="st0" width="72" height="72"/>
<g class="st1">
	<path class="st2" d="M18,24.9V11.1C18,8.4,20.9,7,26.8,7c5.8,0,8.7,1.4,8.7,4.1v13.7c0,1.2-0.8,2.2-2.4,2.9c-1.6,0.7-3.7,1-6.3,1
		s-4.8-0.3-6.4-1C18.8,27,18,26.1,18,24.9z M28,25.1V10.6c0-0.4-0.4-0.6-1.2-0.6c-0.9,0-1.3,0.2-1.3,0.6v14.5c0,0.4,0.4,0.6,1.3,0.6
		C27.6,25.7,28,25.5,28,25.1z"/>
	<path class="st2" d="M40.8,17c-2.5-0.5-3.8-1.8-3.8-4v-2.2C37,8.3,39.8,7,45.4,7c2.2,0,4.2,0.3,5.9,0.9s2.5,1.6,2.5,2.9V13
		c0,2.2-1.3,3.5-3.8,4c2.6,0.4,4,1.5,4,3.3v4.4c0,2.7-2.9,4-8.6,4s-8.5-1.3-8.5-4v-4.4C36.9,18.5,38.2,17.4,40.8,17z M46.7,15v-4.4
		c0-0.4-0.4-0.6-1.2-0.6s-1.3,0.2-1.3,0.6V15c0,0.4,0.4,0.6,1.3,0.6C46.3,15.6,46.7,15.4,46.7,15z M46.7,25.1v-6.2
		c0-0.4-0.4-0.6-1.2-0.6s-1.3,0.2-1.3,0.6v6.2c0,0.4,0.4,0.6,1.3,0.6C46.3,25.7,46.7,25.5,46.7,25.1z"/>
</g>
<g class="st1">
	<path class="st2" d="M31.9,65h-7.5V49.4h-2.9v-3.1c1.1,0,2-0.3,2.8-0.9c0.7-0.6,1.1-1.2,1.1-1.7h6.5V65z"/>
	<path class="st2" d="M50.5,65H33.4v-2.8l8.4-9.7c0.9-1.1,1.4-2.5,1.4-4.3c0-1-0.5-1.4-1.5-1.4s-1.6,0.3-1.6,0.9v3.7h-6.7v-3.7
		c0-2.7,2.8-4.1,8.5-4.1c3.5,0,5.8,0.5,6.9,1.5c1.1,1,1.7,2.7,1.7,5c0,0.9-0.2,1.6-0.7,2.2l-8.4,10.1h9.2V65H50.5z"/>
</g>
</svg>
