<?xml version="1.0" encoding="utf-8"?>
<!-- Generator: Adobe Illustrator 27.3.1, SVG Export Plug-In . SVG Version: 6.00 Build 0)  -->
<svg version="1.1" id="Layer_1" xmlns="http://www.w3.org/2000/svg" xmlns:xlink="http://www.w3.org/1999/xlink" x="0px" y="0px"
	 viewBox="0 0 144 72" style="enable-background:new 0 0 144 72;" xml:space="preserve">
<style type="text/css">
	.st0{enable-background:new    ;}
	.st1{fill:#8FE5D0;}
</style>
<g class="st0">
	<path class="st1" d="M8.1442957,49.6451607V22.9354858C8.1442957,17.7096767,13.7571983,15,25.1765537,15
		c11.2258053,0,16.8387127,2.7096767,16.8387127,7.9354858v26.5161285c0,2.3225822-1.5483856,4.2580643-4.6451645,5.6128998
		C34.2733269,56.4193573,30.2088089,57,25.1765537,57s-9.2903223-0.5806427-12.3870974-1.9354858
		C9.6926813,53.7096786,8.1442957,51.9677429,8.1442957,49.6451607z M27.499136,50.0322609v-28.064518
		c0-0.7741928-0.7741928-1.1612911-2.3225822-1.1612911c-1.7419357,0-2.5161285,0.3870964-2.5161285,1.1612911v28.064518
		c0,0.7741928,0.7741928,1.1612892,2.5161285,1.1612892C26.7249432,51.1935501,27.499136,50.8064537,27.499136,50.0322609z"/>
	<path class="st1" d="M52.2733307,34.3548393c-4.8387108-0.9677429-7.3548393-3.4838715-7.3548393-7.7419357v-4.2580643
		C44.9184914,17.5161304,50.3378448,15,61.1765594,15c4.2580643,0,8.1290359,0.5806456,11.4193573,1.7419357
		c3.290329,1.1612911,4.8387146,3.0967751,4.8387146,5.6129036v4.2580643c0,4.2580643-2.5161285,6.7741928-7.3548431,7.7419357
		c5.0322571,0.7741928,7.7419357,2.9032249,7.7419357,6.3870964v8.5161285C77.8217239,54.4838715,72.2088165,57,61.1765594,57
		s-16.4516144-2.5161285-16.4516144-7.7419357v-8.5161285C44.7249451,37.2580643,47.2410736,35.1290321,52.2733307,34.3548393z
		 M63.692688,30.4838715v-8.5161285c0-0.7741928-0.7741966-1.1612911-2.3225822-1.1612911s-2.5161285,0.3870964-2.5161285,1.1612911
		v8.5161285c0,0.7741928,0.7741966,1.1612911,2.5161285,1.1612911C62.9184914,31.6451626,63.692688,31.2580643,63.692688,30.4838715
		z M63.692688,50.0322609v-12c0-0.7741928-0.7741966-1.1612892-2.3225822-1.1612892s-2.5161285,0.3870964-2.5161285,1.1612892
		v12.0000038c0,0.7741928,0.7741966,1.1612892,2.5161285,1.1612892
		C62.9184914,51.1935501,63.692688,50.8064537,63.692688,50.0322609z"/>
</g>
<g class="st0">
	<path class="st1" d="M99.6621323,56.7096748H85.1460037V26.5161285h-5.6128998v-5.9999962
		c2.1290283,0,3.8709641-0.5806446,5.4193497-1.7419395c1.3548431-1.1612873,2.1290359-2.3225822,2.1290359-3.2903233h12.5806427
		V56.7096748z"/>
	<path class="st1" d="M135.6621399,56.7096748H102.565361v-5.4193535l16.2580719-18.7741928
		c1.7419357-2.1290321,2.7096786-4.8387127,2.7096786-8.3225822c0-1.9354839-0.9677429-2.7096806-2.9032288-2.7096806
		c-1.9354782,0-3.0967712,0.5806446-3.0967712,1.7419395v7.1612911h-12.9677429v-7.1612911
		c0-5.2258091,5.4193573-7.935482,16.4516144-7.935482c6.7741928,0,11.2258148,0.9677429,13.3548431,2.9032269
		s3.290329,5.2258072,3.290329,9.6774197c0,1.7419376-0.3871002,3.0967712-1.3548431,4.2580662l-16.2580643,19.5483856h17.8064499
		v5.0322533H135.6621399z"/>
</g>
</svg>
